<?xml version="1.0" standalone="no"?>
<!DOCTYPE svg PUBLIC "-//W3C//DTD SVG 20010904//EN"
 "http://www.w3.org/TR/2001/REC-SVG-20010904/DTD/svg10.dtd">
<svg version="1.0" xmlns="http://www.w3.org/2000/svg"
 width="225.000000pt" height="225.000000pt" viewBox="0 0 225.000000 225.000000"
 preserveAspectRatio="xMidYMid meet">
<metadata>
Created by potrace 1.11, written by Peter Selinger 2001-2013
</metadata>
<g transform="translate(0.000000,225.000000) scale(0.100000,-0.100000)"
fill="#000000" stroke="none">
<path d="M480 1418 l0 -23 580 3 c571 2 580 3 580 22 0 20 -8 20 -580 20
l-580 0 0 -22z"/>
<path d="M430 1210 l0 -130 24 0 c19 0 25 -6 28 -27 l3 -28 578 -3 577 -2 0
30 c0 25 4 30 25 30 24 0 25 3 25 54 l0 53 38 7 c20 3 43 6 50 6 9 0 12 -33
12 -134 l0 -133 -112 -21 c-62 -11 -205 -37 -318 -57 -328 -57 -308 -52 -315
-85 -3 -15 -14 -30 -25 -33 -24 -6 -34 -110 -28 -300 4 -116 8 -148 24 -174
27 -47 63 -45 89 4 18 33 20 56 20 227 0 211 -5 246 -35 246 -13 0 -20 7 -20
19 0 22 -28 15 370 87 168 30 317 57 333 60 l27 6 0 154 0 154 -55 0 -55 0 0
60 c0 57 -1 60 -25 60 -24 0 -25 -2 -25 -65 0 -65 0 -65 -28 -65 -18 0 -44
-13 -69 -35 -47 -40 -72 -44 -99 -14 -54 59 -123 65 -184 14 -23 -19 -47 -35
-53 -35 -7 0 -35 16 -64 36 -61 42 -93 41 -138 -6 -37 -39 -60 -38 -114 5 -61
49 -113 49 -171 0 -23 -19 -48 -35 -56 -35 -8 0 -37 16 -65 35 -34 23 -63 35
-85 35 l-34 0 0 65 c0 63 -1 65 -25 65 l-25 0 0 -130z"/>
</g>
</svg>
